<?xml version="1.0" encoding="UTF-8"?>
<svg id="Layer_1" data-name="Layer 1" xmlns="http://www.w3.org/2000/svg" viewBox="0 0 1080 1080">
  <defs>
    <style>
      .cls-1 {
        stroke-width: 0px;
      }
    </style>
  </defs>
  <path class="cls-1" d="m634.59,156.2v45.42c22.71,0,43.27,6.51,56.21,19.45,12.98,12.94,19.5,33.54,19.5,66.99v260.97c-93.85-73.83-252.85-78.48-305.21-161.4-6.24-9.88-8.35-22.03-8.35-33.72v-87.43c0-27.02,4.36-41.11,14.08-50.79,9.73-9.77,22.71-14.08,50.79-14.08h10.83v-45.42h-232.44v45.42h10.78c28.12,0,41.11,4.31,50.84,14.08,9.73,9.68,14.04,23.77,14.04,50.79v425.97c0,87.5,21.65,136.18,59.46,170.77,41.11,38.91,99.47,60.56,178.39,60.56,55.15,0,114.61-21.65,154.58-60.56,35.7-34.6,56.25-83.27,56.25-170.77v-404.4c0-33.45,6.47-54.05,19.45-66.99,12.98-12.94,33.49-19.45,56.21-19.45v-45.42h-205.41Zm-82.17,702.73c-45.38,0-84.29-14.08-114.57-41.11-27.02-24.82-41.11-62.68-41.11-129.75v-170.47c101.53,66.14,236.28,67.08,290.43,150.78,36.11,55.81,21.6,190.55-134.75,190.55Z"/>
</svg>